<svg width="130" height="228" viewBox="0 0 130 228" fill="none" xmlns="http://www.w3.org/2000/svg">
<path d="M128.244 81.2982C127.838 80.1366 126.236 76.6087 125.623 75.5421C122.083 69.3973 123.961 67.0827 124.82 63.7793C128.896 48.0827 116.734 39.1743 116.734 39.1743C116.734 39.1743 118.004 32.8137 118.004 26.8459C118.004 20.8782 113.177 22.0182 108.346 16.6205C103.515 11.2227 104.811 9.15866 93.3141 10.0352C82.9055 10.8298 82.9055 8.95138 79.7972 6.63684C73.0366 1.60616 68.59 3.24706 66.5005 4.72388C64.2944 6.28275 61.6308 7.10752 58.9455 6.80957C56.0229 6.4857 55.2587 6.40797 50.6653 3.02252C39.8725 -4.93157 37.3643 4.83184 24.2791 9.23638C15.3686 12.2375 19.7937 17.8555 19.5087 26.3796C19.3447 31.3023 16.8278 34.6791 14.4059 37.9652C11.7293 41.5925 8.83683 46.2 10.2313 50.4837C11.8459 55.4452 9.20379 61.8146 8.36627 63.49C6.83369 66.5559 4.36862 73.1584 4.96438 83.1032C-4.12314 96.17 1.29052 106.205 5.2709 110.183C9.24696 114.16 14.7901 114.734 20.8859 122.403C25.911 128.72 32.9004 132.633 37.2866 134.805C38.4479 135.379 38.9487 136.8 38.3875 137.97C10.5205 196.127 19.077 228 19.077 228L79.5079 227.56L77.194 206.279C76.2615 198.144 71.2018 189.633 69.0001 181.748L66.9279 174.32L76.6802 174.446C77.6732 174.459 79.413 174.377 80.2289 173.815L81.891 169.912L81.2391 166.081L84.1747 164.756C84.6971 164.518 85.0079 163.974 84.9389 163.408C84.5546 160.213 83.3502 149.69 83.3502 142.772C83.3502 134.533 85.09 136.096 92.5154 134.269C102.138 131.903 103.563 127.572 103.692 125.637C103.736 125.003 104.124 124.445 104.711 124.199C107.578 122.986 115.694 119.626 122.295 117.64C128.835 115.671 125.101 108.965 127.087 104.703C131.762 94.6846 129.768 85.6639 128.239 81.3112L128.244 81.2982ZM110.876 81.4709C111.778 76.8418 112.953 72.8864 115.97 73.4434C115.759 74.523 116.225 75.6068 117.093 76.695C117.093 76.695 121.211 79.4414 114.2 84.9384C103.761 93.1171 98.296 80.5987 98.296 80.5987C100.243 81.2205 102.384 80.4432 104.655 78.7202C104.815 78.3834 104.068 80.5037 105.812 81.1773C105.039 83.9927 107.686 87.1018 108.126 87.1062C108.208 86.6873 108.117 84.7312 108.126 83.7812C108.174 79.5364 110.872 81.4666 110.872 81.4666L110.876 81.4709ZM98.5853 93.1862C96.7073 92.8968 97.5017 93.9807 95.6928 95.6432C91.7901 98.3205 90.4864 93.4755 90.4864 93.4755L89.0401 85.9575C89.0401 85.9575 99.7379 87.9827 98.5809 93.1862H98.5853ZM98.8745 56.0196C98.8745 56.0196 105.018 56.2355 103.356 62.8164C103.066 68.24 104.366 69.1771 104.366 69.1771C104.366 69.1771 105.596 66.2839 109.572 68.1666C106.464 68.8187 103.641 73.8277 102.199 73.5902C101.279 73.4391 100.191 71.8457 100.031 70.1918C99.6127 65.8477 95.982 62.7214 95.982 62.7214L93.5774 61.4648L97.0095 60.45L98.8788 56.0196H98.8745ZM97.6225 78.7246C93.1889 81.6177 90.1065 79.1089 90.1065 79.1089C90.1065 79.1089 88.466 76.7943 86.057 79.1089C82.7803 76.1207 78.7309 76.0257 78.7309 76.0257C78.7309 76.0257 79.9828 73.4218 78.1524 70.2393C79.5036 69.4664 80.7556 68.6977 80.7556 68.6977C80.7556 68.6977 82.7717 69.9155 85.5735 69.6607C88.3753 69.4102 91.0692 67.1562 91.0692 67.1562C91.0692 67.1562 91.3584 71.9752 97.6225 78.7246ZM77.7681 104.318C77.7681 104.318 75.67 104.608 75.1649 102.872C74.6598 101.136 73.7187 97.6641 73.7187 97.6641L83.4063 87.8316C83.4063 87.8316 83.0437 89.4207 83.5488 91.7352C84.0539 94.0498 85.159 103.649 83.4063 107.859C82.6853 109.595 81.6708 109.233 80.9499 108.222C80.2289 107.212 79.8663 103.74 79.7929 102.725C79.7195 101.715 78.2733 99.8318 77.6257 101.715C76.9738 103.593 77.7681 104.318 77.7681 104.318ZM68.8058 88.1209C68.8058 88.1209 69.9628 81.2507 79.0719 82.1921C78.351 86.4584 70.9773 91.4459 70.9773 91.4459L71.5558 89.4207L68.8101 88.1209H68.8058ZM54.8313 102.051C54.8313 102.051 52.5174 104.655 52.5174 103.982C52.5174 103.308 53.6744 100.32 53.0959 99.5468C52.5174 98.7739 50.6869 97.8109 50.1084 100.993C49.5299 104.176 49.0464 108.032 46.2532 107.643C44.6214 107.419 44.712 104.945 45.5798 104.172C46.4475 103.399 47.2203 100.315 46.5425 97.4223C46.0201 95.1898 49.5299 94.2398 49.2407 91.0616C48.9514 87.8791 48.278 83.928 48.278 83.928C48.278 83.928 58.0131 92.9918 57.1453 97.8109C53.7736 99.1625 54.8313 102.051 54.8313 102.051ZM41.5303 75.8271C38.9271 77.7573 39.0264 76.6 39.0264 76.6C39.0264 76.6 37.4377 75.6846 40.3776 73.5168C43.3176 71.3491 43.0758 68.9871 43.2701 65.8046C43.2701 65.8046 44.4271 67.1562 48.4766 68.8877C52.526 70.6237 54.4514 66.7675 54.4514 66.7675C54.4514 66.7675 55.8977 68.3091 55.9926 69.4664C56.0876 70.6237 53.2944 71.9709 53.2944 71.9709C53.2944 71.9709 48.9557 76.2114 46.5468 74.8641C44.1379 73.5125 44.1379 73.9012 41.5346 75.8271H41.5303ZM42.0138 85.0809L40.6626 90.768C40.6626 90.768 38.8796 88.8896 38.4479 92.0202C36.6174 89.805 33.725 90.09 33.725 90.09C33.725 90.09 35.2662 89.0796 36.7599 86.0871C38.4479 82.7146 42.0138 85.0766 42.0138 85.0766V85.0809ZM51.1704 81.4191C51.1704 81.4191 59.4593 78.7202 64.2772 87.0112C60.517 86.3375 59.8435 89.71 59.8435 89.71L51.1704 81.4191ZM60.422 74.6698C62.1575 74.3805 67.1696 59.2452 67.1696 59.2452C67.1696 59.2452 72.566 68.4041 72.3761 75.6327C69.4836 76.5957 67.3639 79.6832 67.3639 79.6832C67.3639 79.6832 64.86 76.3107 60.4263 74.6698H60.422ZM89.338 60.7868C88.5652 55.8684 82.2061 54.6162 82.2061 54.6162C82.2061 54.6162 84.6151 52.0123 84.6151 49.8921C84.6151 47.7718 81.8219 44.205 81.8219 44.205C89.243 42.7584 95.5072 49.3134 89.338 60.7868ZM79.3137 43.6264C79.3137 43.6264 80.2764 44.3993 81.6276 50.5657C78.4459 54.5168 78.351 62.1341 78.351 62.1341C78.351 62.1341 77.3882 62.2291 75.2685 62.9071C72.9546 56.4471 70.4506 57.6993 70.4506 57.6993C70.4506 57.6993 70.7399 56.5421 72.3804 52.8802C74.0209 49.2184 76.2356 50.3757 76.2356 50.3757L74.5001 46.9039L75.3031 46.3555L75.2815 41.7955C75.2815 41.653 75.3722 41.5277 75.5103 41.4846C75.6441 41.4414 75.7952 41.4932 75.8729 41.6141L77.8847 44.598L79.3137 43.6264ZM62.9777 32.4639L65.8184 35.7241L67.2214 28.7891C67.4244 27.7787 68.3655 25.2137 69.19 25.218C70.0146 25.2223 70.7226 27.7873 70.9212 28.8021L71.7933 33.2196L74.1288 31.1166C75.0354 30.3005 76.4385 31.2332 76.0284 32.3862L72.6524 41.9293C72.2509 43.0607 71.1716 43.8034 69.9714 43.7732L65.6327 43.6609C64.9291 43.6437 64.3117 43.1859 64.0872 42.5209L61.0652 33.5607C60.6724 32.3991 62.1661 31.5398 62.9734 32.4639H62.9777ZM55.6171 46.9082L57.5209 42.5943C57.7281 42.1193 58.3109 41.9423 58.747 42.2143L61.4279 43.8725C61.7214 44.0539 61.8164 44.4339 61.6394 44.7318C61.1559 45.5393 60.3011 47.0982 60.232 48.0612C61.32 49.3696 63.1763 52.6427 64.0225 54.18C64.2858 54.655 64.2124 55.2423 63.8368 55.6352C62.6971 56.8271 60.422 59.4914 60.422 61.7541C60.422 61.7541 57.8058 61.6289 57.9181 60.9812C59.3643 52.5952 55.3537 49.6934 55.3537 49.6934C55.1422 48.7607 55.2371 47.7848 55.6214 46.9125L55.6171 46.9082ZM51.7446 40.1071C53.4801 39.0966 55.8631 41.2643 55.0688 41.9855C50.7646 45.8977 52.0338 50.8075 52.0338 50.8075C52.0338 50.8075 53.8427 50.8809 53.3333 53.1221C52.8282 55.3632 49.5731 55.9418 48.5629 56.4471C47.5527 56.9523 47.9844 59.3402 47.9844 59.3402C47.9844 59.3402 44.8761 54.9314 44.2242 53.2646C43.5723 51.6021 44.2242 48.7823 46.2489 45.7466C46.9353 44.7189 47.57 44.1705 48.1096 43.8984L46.8576 39.6407H47.3066C47.38 39.6407 49.245 40.2927 50.6524 41.2298C50.92 40.7893 51.2697 40.3834 51.7403 40.1071H51.7446ZM37.4334 15.5237L39.6006 17.8382L39.8898 12.6305C41.336 11.3307 41.6555 8.53684 42.9981 10.4627C44.7509 12.9716 45.5409 18.6846 45.2948 19.6L47.9887 17.1127C49.1371 16.4564 50.4926 17.5575 50.0825 18.8184L46.9699 26.1291C46.5468 27.1266 45.5064 27.7139 44.4357 27.5671L40.0754 26.9668C38.7415 26.7812 37.6492 25.8052 37.3255 24.4968L35.6979 17.985L35.5554 15.8173C35.6806 14.945 36.7556 14.9623 37.4334 15.528V15.5237ZM23.2646 109.664C23.2646 109.664 23.6963 112.631 21.8184 113.425C21.2399 109.595 18.3474 108.438 15.3125 109.522L13.8663 108.365C13.8663 108.365 16.0335 104.534 12.9985 103.157C12.9985 103.157 13.577 99.1064 15.891 98.6746L18.205 98.2427C18.205 98.2427 19.7937 99.3266 20.5189 97.3748C21.2442 95.423 22.5437 96.6537 22.5437 96.6537C22.5437 96.6537 24.0633 97.7375 22.9754 100.704C21.8918 103.671 23.2646 109.669 23.2646 109.669V109.664ZM24.3482 92.0202C21.9609 89.7791 20.0095 90.3577 17.6265 90.4312C16.9055 87.3955 14.5915 86.0914 14.5915 86.0914C14.5915 86.0914 13.4346 89.6323 13.2921 93.4668C9.89453 94.1189 8.81093 98.5277 8.81093 98.5277C8.81093 98.5277 7.72734 94.7666 8.52168 90.4312C9.31603 86.0957 12.4244 79.0052 12.4244 79.0052C12.4244 79.0052 15.2089 82.4123 18.5676 85.0809C21.9263 87.7496 25.8722 89.6712 25.8678 90.1418C25.8678 90.9277 24.9742 92.6075 24.3482 92.0202ZM26.1571 82.3302C26.1571 82.3302 23.7525 81.8552 22.9754 81.6091C21.8616 81.255 20.1693 79.5105 18.9993 79.5105L15.7485 79.5839L17.3372 74.9548L16.9012 73.2189C16.6206 72.0962 16.7199 70.9087 17.1904 69.8507L17.8423 68.3782C18.6755 67.2555 19.7634 66.8452 20.7132 67.1302C24.6375 68.3048 23.4071 71.7766 23.4071 71.7766C23.4071 71.7766 26.2262 71.4873 26.878 75.8271L26.1571 82.3346V82.3302ZM27.0248 61.508C27.1716 60.6746 27.5083 60.1175 27.7458 60.9293C28.2552 62.6523 31.5751 64.3277 32.5162 61.2921C33.7163 57.41 32.9479 53.8432 32.9479 53.8432L36.2721 50.2289L39.4538 58.9041L37.1398 60.3507C37.1398 60.3507 38.4522 68.5855 32.9479 68.8834C30.2713 69.0259 29.4769 66.2796 29.4769 66.2796C29.4769 66.2796 29.4769 65.0489 28.1775 64.5437C27.4911 64.2759 26.7313 63.1705 27.0205 61.508H27.0248ZM28.035 79.0052C28.2509 76.7641 29.913 74.523 30.6382 73.2189C31.3592 71.9191 29.3388 71.3405 29.3388 71.3405C29.3388 71.3405 30.349 71.5564 31.2167 71.7723C31.6873 71.8889 32.6716 72.8216 33.4746 73.6464C34.1696 74.3632 35.1108 74.7648 36.108 74.8727C36.6606 74.9332 37.2132 75.1405 37.4334 75.6759C37.5758 76.0171 37.6017 76.3927 37.5715 76.7555C37.4852 77.7616 36.911 78.6555 36.0864 79.2384C35.236 79.8343 33.8588 80.7455 32.2269 81.6048C29.4813 83.0514 27.7458 82.0366 27.7458 82.0366C27.7458 82.0366 27.8192 81.2421 28.035 79.0009V79.0052ZM29.192 96.5025C30.7116 92.8882 30.2022 90.7162 30.2022 90.7162L35.6979 92.1627C35.6979 92.1627 35.5554 95.1293 36.5656 97.2237C39.7473 96.9343 39.674 97.1502 40.6151 97.9448C41.5562 98.7393 44.6645 102.138 42.7823 106.331C40.9043 110.524 38.1543 109.513 38.1543 109.513C38.1543 109.513 35.3655 111.957 34.7222 113.62C34.597 114.008 34.5495 114.095 34.6834 113.706C34.692 113.676 34.7093 113.646 34.7222 113.62C35.1367 112.337 36.4189 107.717 34.9726 105.61C33.997 104.185 29.7662 101.417 29.7662 101.417C29.7662 101.417 27.6681 100.117 29.1877 96.4982L29.192 96.5025ZM45.964 130.582C45.4805 131.644 43.4601 131.16 43.4601 131.16C43.4601 131.16 43.0758 127.304 41.7246 127.498C40.3733 127.693 38.6422 130.197 37.0966 128.461C35.5554 126.725 36.3239 124.605 35.7454 122.291C35.2014 120.106 34.0099 119.592 34.0099 119.592C34.0099 119.592 39.1171 120.844 41.1418 119.786C43.1665 118.728 43.4557 117.087 43.4557 117.087C43.4557 117.087 44.4185 114.773 46.5382 115.93C47.8894 117.087 48.8521 117.86 48.8521 117.86C48.8521 117.86 45.4805 124.031 45.9597 130.586L45.964 130.582ZM50.5919 118.05C50.5919 118.05 51.3647 111.59 49.2407 109.954C49.2407 109.954 52.0339 109.181 51.7446 106.676C54.2485 106.482 57.3353 105.903 57.3353 105.903L57.9138 102.626C59.1657 104.457 61.5747 105.519 61.5747 105.519C61.5747 105.519 63.3101 110.049 61.1904 112.074C59.0707 114.099 54.6371 113.81 53.6744 114.967C52.7116 116.124 50.5919 118.05 50.5919 118.05ZM68.0115 125.279C66.7811 122.243 65.9868 122.386 65.0456 121.807C62.9259 120.503 61.7214 123.975 61.7214 123.975C61.7214 123.975 59.4809 128.025 58.6865 125.711C57.8922 123.396 55.9408 121.591 54.9263 121.228C54.9263 121.228 62.5892 117.903 64.3247 113.564C67.1437 117.614 72.3502 119.924 73.5762 121.371C70.1787 122.528 69.816 127.3 69.816 127.3C69.816 127.3 68.4993 126.488 68.0072 125.275L68.0115 125.279ZM79.9397 112.985C79.4346 114.574 80.3714 120.503 78.6402 121.082C77.3753 116.068 71.4479 115.926 68.3741 110.524C68.3741 110.524 67.1437 106.473 69.6736 105.895C72.2034 105.316 72.8553 103.58 72.8553 103.58L72.9977 105.169C73.1402 106.758 74.2281 107.337 77.4789 108.352C80.7297 109.362 80.4448 111.387 79.9353 112.981L79.9397 112.985ZM93.5299 128.315C91.652 132.002 87.745 129.183 87.745 129.183C87.745 129.183 86.6355 133.185 83.4063 134.39C84.9 126.242 80.3714 120.507 80.3714 120.507L82.2493 119.061L82.5386 113.421C82.5386 113.421 85.962 113.71 87.9824 119.398C89.7179 119.687 91.6433 122.001 95.1143 122.822C93.0896 123.616 95.4035 124.631 93.5256 128.319L93.5299 128.315ZM97.1433 109.66C94.9762 107.056 93.6724 110.239 93.6724 110.239L93.5299 111.828C93.5299 111.828 90.4216 110.67 89.4805 108.503C88.5393 106.335 87.3133 103.874 87.3133 103.874C87.3133 103.874 89.1222 102.064 93.5299 102.138C97.9377 102.211 98.1579 98.5234 98.1579 98.5234C99.6214 97.9146 101.698 97.8714 102.061 94.9091C102.061 94.9091 103.723 96.645 104.806 105.61C100.502 103.278 99.5998 105.536 97.1433 109.66ZM117.481 116.12C112.085 112.938 110.544 118.435 110.544 118.435C110.544 118.435 111.316 115.062 107.267 115.541C109.676 110.433 109.002 101.464 109.002 101.464C109.002 101.464 110.004 104.185 112.473 105.415C114.943 106.646 118.064 106.089 118.064 106.089L119.8 109.561C119.8 109.561 116.717 109.366 117.486 116.116L117.481 116.12ZM124.035 105.13C122.299 102.431 120.469 101.758 118.638 100.117C118.271 100.173 122.269 95.3927 119.99 93.7562C118.189 92.4607 115.918 96.9084 115.75 96.8393C114.192 96.2305 110 97.4784 108.04 98.7696C107.068 99.4087 107.656 94.1405 107.656 94.1405C107.656 94.1405 114.209 94.7191 121.151 88.5484C125.964 93.225 125.567 105.031 124.043 105.13H124.035Z" fill="#F1F5F9"/>
<style>
    path { fill: #000; }
    @media (prefers-color-scheme: dark) {
    path { fill: #FFF; }
    }
</style>
</svg>
