<svg fill="none" xmlns="http://www.w3.org/2000/svg" viewBox="0 0 301.14 594.57">
    <polygon class="cls-1" points="220.75 142.73 223.05 143.93 223.96 141.78 220.75 142.73"/>
    <path class="cls-1"
          d="m297.07,188.27c-.94-2.69-4.65-10.86-6.07-13.33-8.2-14.23-3.85-19.59-1.86-27.24,9.44-36.35-18.73-56.98-18.73-56.98,0,0,2.94-14.73,2.94-28.55s-11.18-11.18-22.37-23.68-8.19-17.28-34.82-15.25c-24.11,1.84-24.11-2.51-31.31-7.87-15.66-11.65-25.96-7.85-30.8-4.43-5.11,3.61-11.28,5.52-17.5,4.83-6.77-.75-8.54-.93-19.18-8.77-25-18.42-30.81,4.19-61.12,14.39-20.64,6.95-10.39,19.96-11.05,39.7-.38,11.4-6.21,19.22-11.82,26.83-6.2,8.4-12.9,19.07-9.67,28.99,3.74,11.49-2.38,26.24-4.32,30.12-3.55,7.1-9.26,22.39-7.88,45.42-21.05,30.26-8.51,53.5.71,62.71,9.21,9.21,22.05,10.54,36.17,28.3,11.64,14.63,27.83,23.69,37.99,28.72,2.69,1.33,3.85,4.62,2.55,7.33-64.55,134.68-44.73,275.08-44.73,275.08l139.98-1.02-5.36-115.87c-2.16-18.84-13.88-38.55-18.98-56.81l-4.8-17.2,22.59.29c2.3.03,6.33-.16,8.22-1.46l3.85-9.04-1.51-8.87,6.8-3.07c1.21-.55,1.93-1.81,1.77-3.12-.89-7.4-3.68-31.77-3.68-47.79,0-19.08,4.03-15.46,21.23-19.69,22.29-5.48,25.59-15.51,25.89-19.99.1-1.47,1-2.76,2.36-3.33,6.64-2.81,25.44-10.59,40.73-15.19,15.15-4.56,6.5-20.09,11.1-29.96,10.83-23.2,6.21-44.09,2.67-54.17Zm-40.23.4c2.09-10.72,4.81-19.88,11.8-18.59-.49,2.5.59,5.01,2.6,7.53,0,0,9.54,6.36-6.7,19.09-24.18,18.94-36.84-10.05-36.84-10.05,4.51,1.44,9.47-.36,14.73-4.35.37-.78-1.36,4.13,2.68,5.69-1.79,6.52,4.34,13.72,5.36,13.73.19-.97-.02-5.5,0-7.7.11-9.83,6.36-5.36,6.36-5.36Zm-28.47,27.13c-4.35-.67-2.51,1.84-6.7,5.69-9.04,6.2-12.06-5.02-12.06-5.02l-3.35-17.41s24.78,4.69,22.1,16.74Zm.67-86.07s14.23.5,10.38,15.74c-.67,12.56,2.34,14.73,2.34,14.73,0,0,2.85-6.7,12.06-2.34-7.2,1.51-13.74,13.11-17.08,12.56-2.13-.35-4.65-4.04-5.02-7.87-.97-10.06-9.38-17.3-9.38-17.3l-5.57-2.91,7.95-2.35,4.33-10.26Zm-2.9,52.58c-10.27,6.7-17.41.89-17.41.89,0,0-3.8-5.36-9.38,0-7.59-6.92-16.97-7.14-16.97-7.14,0,0,2.9-6.03-1.34-13.4,3.13-1.79,6.03-3.57,6.03-3.57,0,0,4.67,2.82,11.16,2.23,6.49-.58,12.73-5.8,12.73-5.8,0,0,.67,11.16,15.18,26.79Zm-45.99,59.27s-4.86.67-6.03-3.35c-1.17-4.02-3.35-12.06-3.35-12.06l22.44-22.77s-.84,3.68.33,9.04c1.17,5.36,3.73,27.59-.33,37.34-1.67,4.02-4.02,3.18-5.69.84s-2.51-10.38-2.68-12.73c-.17-2.34-3.52-6.7-5.02-2.34-1.51,4.35.33,6.03.33,6.03Zm-20.76-37.51s2.68-15.91,23.78-13.73c-1.67,9.88-18.75,21.43-18.75,21.43l1.34-4.69-6.36-3.01Zm-32.37,32.26s-5.36,6.03-5.36,4.47,2.68-8.48,1.34-10.27c-1.34-1.79-5.58-4.02-6.92,3.35s-2.46,16.3-8.93,15.4c-3.78-.52-3.57-6.25-1.56-8.04,2.01-1.79,3.8-8.93,2.23-15.63-1.21-5.17,6.92-7.37,6.25-14.73-.67-7.37-2.23-16.52-2.23-16.52,0,0,22.55,20.99,20.54,32.15-7.81,3.13-5.36,9.82-5.36,9.82Zm-30.81-60.73c-6.03,4.47-5.8,1.79-5.8,1.79,0,0-3.68-2.12,3.13-7.14,6.81-5.02,6.25-10.49,6.7-17.86,0,0,2.68,3.13,12.06,7.14,9.38,4.02,13.84-4.91,13.84-4.91,0,0,3.35,3.57,3.57,6.25s-6.25,5.8-6.25,5.8c0,0-10.05,9.82-15.63,6.7-5.58-3.13-5.58-2.23-11.61,2.23Zm1.12,21.43l-3.13,13.17s-4.13-4.35-5.13,2.9c-4.24-5.13-10.94-4.47-10.94-4.47,0,0,3.57-2.34,7.03-9.27,3.91-7.81,12.17-2.34,12.17-2.34Zm21.21-8.48s19.2-6.25,30.36,12.95c-8.71-1.56-10.27,6.25-10.27,6.25l-20.09-19.2Zm21.43-15.63c4.02-.67,15.63-35.72,15.63-35.72,0,0,12.5,21.21,12.06,37.95-6.7,2.23-11.61,9.38-11.61,9.38,0,0-5.8-7.81-16.07-11.61Zm66.98-32.15c-1.79-11.39-16.52-14.29-16.52-14.29,0,0,5.58-6.03,5.58-10.94s-6.47-13.17-6.47-13.17c17.19-3.35,31.7,11.83,17.41,38.4Zm-23.22-39.74s2.23,1.79,5.36,16.07c-7.37,9.15-7.59,26.79-7.59,26.79,0,0-2.23.22-7.14,1.79-5.36-14.96-11.16-12.06-11.16-12.06,0,0,.67-2.68,4.47-11.16,3.8-8.48,8.93-5.8,8.93-5.8l-4.02-8.04,1.86-1.27-.05-10.56c0-.33.21-.62.53-.72.31-.1.66.02.84.3l4.66,6.91,3.31-2.25Zm-37.84-25.85l6.58,7.55,3.25-16.06c.47-2.34,2.65-8.28,4.56-8.27s3.55,5.95,4.01,8.3l2.02,10.23,5.41-4.87c2.1-1.89,5.35.27,4.4,2.94l-7.82,22.1c-.93,2.62-3.43,4.34-6.21,4.27l-10.05-.26c-1.63-.04-3.06-1.1-3.58-2.64l-7-20.75c-.91-2.69,2.55-4.68,4.42-2.54Zm-17.05,33.45l4.41-9.99c.48-1.1,1.83-1.51,2.84-.88l6.21,3.84c.68.42.9,1.3.49,1.99-1.12,1.87-3.1,5.48-3.26,7.71,2.52,3.03,6.82,10.61,8.78,14.17.61,1.1.44,2.46-.43,3.37-2.64,2.76-7.91,8.93-7.91,14.17,0,0-6.06-.29-5.8-1.79,3.35-19.42-5.94-26.14-5.94-26.14-.49-2.16-.27-4.42.62-6.44Zm-8.97-15.75c4.02-2.34,9.54,2.68,7.7,4.35-9.97,9.06-7.03,20.43-7.03,20.43,0,0,4.19.17,3.01,5.36-1.17,5.19-8.71,6.53-11.05,7.7-2.34,1.17-1.34,6.7-1.34,6.7,0,0-7.2-10.21-8.71-14.07-1.51-3.85,0-10.38,4.69-17.41,1.59-2.38,3.06-3.65,4.31-4.28l-2.9-9.86h1.04c.17,0,4.49,1.51,7.75,3.68.62-1.02,1.43-1.96,2.52-2.6Zm-33.15-56.93l5.02,5.36.67-12.06c3.35-3.01,4.09-9.48,7.2-5.02,4.06,5.81,5.89,19.04,5.32,21.16l6.24-5.76c2.66-1.52,5.8,1.03,4.85,3.95l-7.21,16.93c-.98,2.31-3.39,3.67-5.87,3.33l-10.1-1.39c-3.09-.43-5.62-2.69-6.37-5.72l-3.77-15.08-.33-5.02c.29-2.02,2.78-1.98,4.35-.67Zm-32.82,218.01s1,6.87-3.35,8.71c-1.34-8.87-8.04-11.55-15.07-9.04l-3.35-2.68s5.02-8.87-2.01-12.06c0,0,1.34-9.38,6.7-10.38l5.36-1s3.68,2.51,5.36-2.01,4.69-1.67,4.69-1.67c0,0,3.52,2.51,1,9.38-2.51,6.87.67,20.76.67,20.76Zm2.51-40.86c-5.53-5.19-10.05-3.85-15.57-3.68-1.67-7.03-7.03-10.05-7.03-10.05,0,0-2.68,8.2-3.01,17.08-7.87,1.51-10.38,11.72-10.38,11.72,0,0-2.51-8.71-.67-18.75s9.04-26.46,9.04-26.46c0,0,6.45,7.89,14.23,14.07s16.92,10.63,16.91,11.72c0,1.82-2.07,5.71-3.52,4.35Zm4.19-22.44s-5.57-1.1-7.37-1.67c-2.58-.82-6.5-4.86-9.21-4.86l-7.53.17,3.68-10.72-1.01-4.02c-.65-2.6-.42-5.35.67-7.8l1.51-3.41c1.93-2.6,4.45-3.55,6.65-2.89,9.09,2.72,6.24,10.76,6.24,10.76,0,0,6.53-.67,8.04,9.38l-1.67,15.07Zm2.01-48.22c.34-1.93,1.12-3.22,1.67-1.34,1.18,3.99,8.87,7.87,11.05.84,2.78-8.99,1-17.25,1-17.25l7.7-8.37,7.37,20.09-5.36,3.35s3.04,19.07-9.71,19.76c-6.2.33-8.04-6.03-8.04-6.03,0,0,0-2.85-3.01-4.02-1.59-.62-3.35-3.18-2.68-7.03Zm2.34,40.52c.5-5.19,4.35-10.38,6.03-13.4,1.67-3.01-3.01-4.35-3.01-4.35,0,0,2.34.5,4.35,1,1.09.27,3.37,2.43,5.23,4.34,1.61,1.66,3.79,2.59,6.1,2.84,1.28.14,2.56.62,3.07,1.86.33.79.39,1.66.32,2.5-.2,2.33-1.53,4.4-3.44,5.75-1.97,1.38-5.16,3.49-8.94,5.48-6.36,3.35-10.38,1-10.38,1,0,0,.17-1.84.67-7.03Zm2.68,40.52c3.52-8.37,2.34-13.4,2.34-13.4l12.73,3.35s-.33,6.87,2.01,11.72c7.37-.67,7.2-.17,9.38,1.67s9.38,9.71,5.02,19.42c-4.35,9.71-10.72,7.37-10.72,7.37,0,0-6.46,5.66-7.95,9.51-.29.9-.4,1.1-.09.2.02-.07.06-.14.09-.2.96-2.97,3.93-13.67.58-18.55-2.26-3.3-12.06-9.71-12.06-9.71,0,0-4.86-3.01-1.34-11.39Zm38.85,78.92c-1.12,2.46-5.8,1.34-5.8,1.34,0,0-.89-8.93-4.02-8.48-3.13.45-7.14,6.25-10.72,2.23-3.57-4.02-1.79-8.93-3.13-14.29-1.26-5.06-4.02-6.25-4.02-6.25,0,0,11.83,2.9,16.52.45s5.36-6.25,5.36-6.25c0,0,2.23-5.36,7.14-2.68,3.13,2.68,5.36,4.47,5.36,4.47,0,0-7.81,14.29-6.7,29.47Zm10.72-29.02s1.79-14.96-3.13-18.75c0,0,6.47-1.79,5.8-7.59,5.8-.45,12.95-1.79,12.95-1.79l1.34-7.59c2.9,4.24,8.48,6.7,8.48,6.7,0,0,4.02,10.49-.89,15.18s-15.18,4.02-17.41,6.7c-2.23,2.68-7.14,7.14-7.14,7.14Zm40.35,16.74c-2.85-7.03-4.69-6.7-6.87-8.04-4.91-3.02-7.7,5.02-7.7,5.02,0,0-5.19,9.38-7.03,4.02s-6.36-9.54-8.71-10.38c0,0,17.75-7.7,21.77-17.75,6.53,9.38,18.59,14.73,21.43,18.08-7.87,2.68-8.71,13.73-8.71,13.73,0,0-3.05-1.88-4.19-4.69Zm27.63-28.47c-1.17,3.68,1,17.41-3.01,18.75-2.93-11.61-16.66-11.94-23.78-24.45,0,0-2.85-9.38,3.01-10.72s7.37-5.36,7.37-5.36l.33,3.68c.33,3.68,2.85,5.02,10.38,7.37,7.53,2.34,6.87,7.03,5.69,10.72Zm31.48,35.5c-4.35,8.54-13.4,2.01-13.4,2.01,0,0-2.57,9.27-10.05,12.06,3.46-18.87-7.03-32.15-7.03-32.15l4.35-3.35.67-13.06s7.93.67,12.61,13.84c4.02.67,8.48,6.03,16.52,7.93-4.69,1.84.67,4.19-3.68,12.73Zm8.37-43.2c-5.02-6.03-8.04,1.34-8.04,1.34l-.33,3.68s-7.2-2.68-9.38-7.7c-2.18-5.02-5.02-10.72-5.02-10.72,0,0,4.19-4.19,14.4-4.02s10.72-8.37,10.72-8.37c3.39-1.41,8.2-1.51,9.04-8.37,0,0,3.85,4.02,6.36,24.78-9.97-5.4-12.06-.17-17.75,9.38Zm47.11,14.96c-12.5-7.37-16.07,5.36-16.07,5.36,0,0,1.79-7.81-7.59-6.7,5.58-11.83,4.02-32.6,4.02-32.6,0,0,2.32,6.3,8.04,9.15,5.72,2.85,12.95,1.56,12.95,1.56l4.02,8.04s-7.14-.45-5.36,15.18Zm15.18-25.45c-4.02-6.25-8.26-7.81-12.5-11.61-.85.13,8.41-10.94,3.13-14.73-4.17-3-9.43,7.3-9.82,7.14-3.61-1.41-13.32,1.48-17.86,4.47-2.25,1.48-.89-10.72-.89-10.72,0,0,15.18,1.34,31.26-12.95,11.15,10.83,10.23,38.17,6.7,38.4Z"/>
    <polygon class="cls-1" points="179.17 104.14 175.89 99.27 175.92 106.35 179.17 104.14"/>
    <path class="cls-1"
          d="m116.23,102.78s.13-2.43,1.17-4.83c-2.17-1.66-5.02-3.25-6.02-3.38l2.24,7.78c1.61-.29,2.61.43,2.61.43Z"/>
</svg>